<?xml version="1.0" encoding="UTF-8" standalone="no"?>
<!-- Created with Inkscape (http://www.inkscape.org/) -->

<svg
   width="210mm"
   height="297mm"
   viewBox="0 0 210 297"
   version="1.1"
   id="svg1545"
   xml:space="preserve"
   xmlns:inkscape="http://www.inkscape.org/namespaces/inkscape"
   xmlns:sodipodi="http://sodipodi.sourceforge.net/DTD/sodipodi-0.dtd"
   xmlns="http://www.w3.org/2000/svg"
   xmlns:svg="http://www.w3.org/2000/svg"><sodipodi:namedview
     id="namedview1547"
     pagecolor="#ffffff"
     bordercolor="#000000"
     borderopacity="0.25"
     inkscape:showpageshadow="2"
     inkscape:pageopacity="0.0"
     inkscape:pagecheckerboard="0"
     inkscape:deskcolor="#d1d1d1"
     inkscape:document-units="mm"
     showgrid="false"
     inkscape:zoom="2.1089995"
     inkscape:cx="165.95547"
     inkscape:cy="211.47468"
     inkscape:window-width="1920"
     inkscape:window-height="1017"
     inkscape:window-x="-8"
     inkscape:window-y="-8"
     inkscape:window-maximized="1"
     inkscape:current-layer="layer1" /><defs
     id="defs1542" /><g
     inkscape:label="Capa 1"
     inkscape:groupmode="layer"
     id="layer1"><path
       style="fill:#000000;stroke-width:0.0992766"
       d="m 28.787396,68.666169 c -0.56227,-0.107118 -0.902041,-0.396812 -1.104018,-0.941303 -0.222499,-0.599814 -0.17244,-1.665164 0.0999,-2.126012 0.360603,-0.610212 1.35665,-0.894713 2.270223,-0.648447 0.323556,0.08722 0.377873,0.141874 0.377873,0.380227 0,0.316027 -0.220316,0.446574 -0.504506,0.298943 -0.258689,-0.134383 -1.022991,-0.116856 -1.21725,0.02791 -0.332657,0.247911 -0.429843,0.601024 -0.40501,1.47155 0.0079,0.277675 0.08929,0.450617 0.315195,0.66989 0.278335,0.270167 0.345479,0.290405 0.780937,0.235384 1.012801,-0.127971 1.078715,-0.12157 1.112383,0.108017 0.05996,0.408914 -0.86122,0.688535 -1.725725,0.523837 z m 1.36837,-0.384899 c 0.100031,-0.09928 0.04535,-0.108445 -0.278607,-0.04668 -0.5564,0.106081 -1.053345,0.06167 -1.338371,-0.119604 -0.692015,-0.44012 -0.707442,-2.041283 -0.02536,-2.631772 0.241485,-0.209056 1.047393,-0.271633 1.489686,-0.11567 0.133897,0.04721 0.226724,0.04187 0.226724,-0.01305 0,-0.129987 -0.364941,-0.210776 -0.957278,-0.211916 -0.99061,-0.0019 -1.461244,0.540054 -1.460953,1.682365 3.02e-4,1.160371 0.532225,1.684906 1.638794,1.616013 0.319497,-0.01989 0.63691,-0.09175 0.705363,-0.159692 z m 2.290929,0.367917 c -0.779885,-0.221985 -1.1483,-0.854178 -1.141598,-1.958963 0.0052,-0.862184 0.245791,-1.325874 0.845138,-1.629041 0.355736,-0.17994 0.566812,-0.218792 1.028369,-0.189282 0.701568,0.04486 1.042017,0.259554 1.36619,0.861562 0.199764,0.370973 0.228069,0.543128 0.193818,1.178806 -0.04556,0.845627 -0.25939,1.302468 -0.733607,1.567352 -0.388944,0.217252 -1.113709,0.296116 -1.55831,0.169566 z m 1.30996,-0.354111 c 0.484723,-0.235041 0.744181,-0.778078 0.736776,-1.542051 -0.01032,-1.064886 -0.489077,-1.612142 -1.41035,-1.612142 -0.720095,0 -1.109459,0.206782 -1.347454,0.715603 -0.438171,0.936779 -0.104022,2.209573 0.660685,2.516594 0.343809,0.138037 0.991381,0.100903 1.360343,-0.078 z m -1.106003,-0.02891 c -0.729673,-0.161527 -1.069282,-1.052708 -0.798678,-2.095839 0.144741,-0.55795 0.468902,-0.844093 1.025196,-0.904955 0.880891,-0.09638 1.383315,0.442192 1.383315,1.48283 0,1.165029 -0.60921,1.739472 -1.609833,1.517964 z m 0.938836,-0.391875 c 0.529461,-0.404253 0.59564,-1.586876 0.116861,-2.088328 -0.340468,-0.356591 -1.021337,-0.359669 -1.363478,-0.0062 -0.318798,0.329387 -0.403999,1.325962 -0.153551,1.796062 0.272879,0.512204 0.935272,0.653386 1.400168,0.29843 z m 18.418211,0.790358 c -0.461583,-0.109639 -0.832561,-0.38946 -1.0501,-0.792066 -0.142768,-0.264225 -0.174836,-0.515467 -0.151149,-1.184202 0.03225,-0.910426 0.152169,-1.176065 0.715108,-1.584026 0.578912,-0.419537 2.186791,-0.261325 2.186791,0.215176 0,0.285169 -0.246148,0.444255 -0.490765,0.317181 -0.260292,-0.135216 -0.976241,-0.134588 -1.237414,0.0011 -0.421051,0.218727 -0.596019,1.03125 -0.382656,1.776988 0.124842,0.436342 0.49739,0.660368 1.09817,0.660368 h 0.408068 v -0.440141 c 0,-0.437813 -0.0019,-0.440141 -0.352681,-0.440141 -0.325867,0 -0.352682,-0.02265 -0.352682,-0.297897 v -0.297896 l 0.680172,0.02892 0.680171,0.02892 0.03009,0.732417 c 0.03594,0.874676 -0.0216,1.14553 -0.257048,1.210173 -0.388124,0.106556 -1.203071,0.141387 -1.524076,0.06514 z m 1.272394,-0.259907 c 0.21081,-0.05484 0.226724,-0.113098 0.226724,-0.830041 v -0.771066 h -0.397118 c -0.218414,0 -0.425142,0.04401 -0.459394,0.09781 -0.03706,0.05821 0.08292,0.09781 0.296351,0.09781 h 0.358629 v 0.63576 0.635759 l -0.32749,0.01789 c -0.929742,0.05079 -1.29947,-0.08443 -1.532124,-0.560327 -0.206567,-0.422531 -0.205337,-1.525922 0.0021,-1.915352 0.255878,-0.480295 1.07253,-0.710383 1.699771,-0.478904 0.142162,0.05246 0.258476,0.05717 0.258476,0.01046 -3e-6,-0.139983 -0.285046,-0.203662 -0.911634,-0.203662 -0.515918,0 -0.637829,0.03833 -0.939476,0.295412 -0.574774,0.489848 -0.734366,1.770371 -0.302038,2.423461 0.337536,0.509893 1.234791,0.751112 2.027187,0.544989 z m 31.895005,0.260109 c -0.826042,-0.1905 -1.231018,-0.802195 -1.234696,-1.864943 -0.0025,-0.727104 0.270847,-1.373465 0.712914,-1.685671 0.595754,-0.420747 2.207091,-0.270867 2.207091,0.205294 0,0.285169 -0.246149,0.444255 -0.490765,0.317181 -0.110742,-0.05753 -0.410443,-0.104596 -0.666001,-0.104596 -0.354723,0 -0.521259,0.05495 -0.703916,0.232242 -0.489147,0.474793 -0.41727,1.70484 0.12376,2.117925 0.27773,0.212051 0.533189,0.219862 1.399475,0.04279 0.267465,-0.05467 0.328361,-0.03179 0.386199,0.145091 0.09812,0.300081 -0.08971,0.465374 -0.664889,0.585108 -0.557537,0.116062 -0.605573,0.116492 -1.069172,0.0096 z m 1.225301,-0.293849 c 0.142162,-0.05246 0.258476,-0.14204 0.258476,-0.199059 0,-0.07027 -0.06979,-0.06742 -0.216633,0.0089 -0.281619,0.146295 -1.102099,0.144637 -1.385917,-0.0028 -0.398069,-0.206788 -0.613517,-0.681622 -0.613928,-1.35306 -5.04e-4,-0.819157 0.197602,-1.260503 0.647739,-1.443064 0.409453,-0.166059 0.842664,-0.183181 1.209497,-0.0478 0.163085,0.06019 0.258476,0.06087 0.258476,0.0019 0,-0.287119 -1.483591,-0.240596 -1.822545,0.05715 -0.374583,0.329045 -0.524714,0.73656 -0.524714,1.424287 0,0.781673 0.221269,1.224463 0.738428,1.477693 0.385402,0.188714 1.051119,0.223547 1.451121,0.07593 z m 5.276871,0.298927 c -0.452728,-0.08903 -0.685452,-0.262866 -0.685452,-0.512012 0,-0.26375 0.25208,-0.32578 0.71773,-0.17661 0.568319,0.182058 0.944912,0.0431 0.944912,-0.34865 0,-0.261078 -0.06636,-0.322137 -0.643966,-0.592535 -0.78221,-0.366182 -0.917909,-0.532071 -0.917909,-1.122126 0,-0.763809 0.644336,-1.185112 1.585719,-1.03683 0.465143,0.07327 0.673523,0.269426 0.582364,0.548213 -0.06387,0.195337 -0.113605,0.207151 -0.615716,0.146258 -0.597352,-0.07245 -0.847005,0.03538 -0.847005,0.365826 0,0.138028 0.171798,0.265387 0.630035,0.467064 0.764474,0.336458 0.985157,0.557696 1.045094,1.047728 0.10602,0.866801 -0.720198,1.42519 -1.795806,1.213674 z m 1.059389,-0.317324 c 0.322403,-0.166675 0.465192,-0.386057 0.46881,-0.720281 0.0048,-0.439718 -0.241553,-0.703608 -0.946209,-1.013738 -0.672815,-0.296116 -0.82808,-0.517907 -0.661062,-0.944306 0.157566,-0.402269 0.768358,-0.565861 1.225694,-0.328284 0.163052,0.0847 0.197127,0.07955 0.161756,-0.02445 -0.02851,-0.08383 -0.244065,-0.14218 -0.592615,-0.160408 -0.611086,-0.03196 -0.940351,0.162296 -1.060102,0.625423 -0.111804,0.432389 0.110738,0.709192 0.817698,1.017076 0.711128,0.309699 0.929527,0.58459 0.815331,1.026229 -0.118519,0.458363 -1.010171,0.63068 -1.559192,0.301325 -0.06196,-0.03717 -0.112651,-0.01955 -0.112651,0.03915 0,0.261817 1.035563,0.392659 1.442542,0.182262 z M 35.91755,68.536462 c -0.0273,-0.06905 -0.03721,-0.916324 -0.02203,-1.882826 l 0.02761,-1.757276 h 0.302298 0.302298 l 0.02769,1.589398 0.02769,1.589399 h 0.75325 0.75325 v 0.293427 0.293428 H 37.0284 c -0.770834,0 -1.074789,-0.03435 -1.110842,-0.12555 z m 1.970516,-0.167878 c 0,-0.05651 -0.319093,-0.09781 -0.755746,-0.09781 h -0.755746 v -1.573097 c 0,-1.214946 -0.02868,-1.563844 -0.125958,-1.532456 -0.09182,0.02963 -0.133526,0.448204 -0.153887,1.544537 -0.01536,0.827144 -0.0055,1.560764 0.02203,1.630266 0.06131,0.155074 1.769307,0.182644 1.769307,0.02856 z m 1.05241,0.16773 c -0.02733,-0.06913 -0.03724,-0.889654 -0.02203,-1.823379 0.02341,-1.436758 0.05266,-1.712968 0.190309,-1.797146 0.08945,-0.05471 0.236825,-0.07184 0.32749,-0.03807 0.144626,0.05387 0.164845,0.289718 0.164845,1.922845 v 1.861443 h -0.30546 c -0.168004,0 -0.327824,-0.05656 -0.355154,-0.125698 z m 0.459082,-1.732676 c 0,-1.043298 -0.03754,-1.662755 -0.100766,-1.662755 -0.06323,0 -0.100766,0.619457 -0.100766,1.662755 0,1.043298 0.03754,1.662755 0.100766,1.662755 0.06323,0 0.100766,-0.619457 0.100766,-1.662755 z m 2.373045,1.768481 c -0.176065,-0.276519 -1.265475,-3.483607 -1.221298,-3.595351 0.0648,-0.163917 0.50554,-0.168829 0.632701,-0.0071 0.05286,0.06724 0.268121,0.606416 0.478368,1.198162 0.210246,0.591745 0.414162,1.133948 0.453147,1.204894 0.04156,0.07564 0.248668,-0.377717 0.500683,-1.095975 0.236391,-0.673734 0.491395,-1.274588 0.566676,-1.335233 0.198292,-0.159738 0.494572,-0.07478 0.528009,0.151413 0.01582,0.10704 -0.239525,0.942858 -0.567439,1.857374 l -0.596207,1.662755 -0.355288,0.02981 c -0.195408,0.0164 -0.384117,-0.01546 -0.419352,-0.0708 z m 0.789238,-0.814842 c 0.808707,-2.201304 0.945524,-2.625132 0.836284,-2.590608 -0.06549,0.0207 -0.345795,0.683378 -0.622901,1.472621 -0.277107,0.789245 -0.556751,1.435187 -0.621433,1.435429 -0.06468,1.95e-4 -0.331069,-0.626763 -0.591973,-1.393342 -0.45802,-1.345736 -0.589391,-1.632672 -0.698854,-1.526422 -0.04566,0.04432 0.981988,3.018656 1.115308,3.228043 0.147896,0.232278 0.346655,0.01916 0.583569,-0.625721 z m 2.122304,0.779037 c -0.02733,-0.06913 -0.03724,-0.889654 -0.02203,-1.823379 0.02341,-1.436758 0.05266,-1.712968 0.190309,-1.797146 0.08945,-0.05471 0.236824,-0.07184 0.32749,-0.03807 0.144625,0.05387 0.164845,0.289718 0.164845,1.922845 v 1.861443 H 45.0393 c -0.168005,0 -0.327824,-0.05656 -0.355155,-0.125698 z m 0.459083,-1.732676 c 0,-1.043298 -0.03754,-1.662755 -0.100766,-1.662755 -0.06323,0 -0.100767,0.619457 -0.100767,1.662755 0,1.043298 0.03754,1.662755 0.100767,1.662755 0.06323,0 0.100766,-0.619457 0.100766,-1.662755 z m 1.534485,-0.0181 0.02739,-1.889182 h 0.302298 c 0.273595,0 0.37884,0.110168 1.108428,1.160287 l 0.806129,1.160287 0.02838,-1.134748 c 0.0277,-1.107639 0.03418,-1.136162 0.271379,-1.193947 0.13365,-0.03256 0.290923,-0.03045 0.349493,0.0047 0.06875,0.04124 0.106494,0.720504 0.106494,1.916487 v 1.852601 h -0.338768 c -0.321146,0 -0.380115,-0.06068 -1.133619,-1.166514 l -0.794851,-1.166514 -0.05038,1.142062 -0.05038,1.142061 -0.329689,0.03081 -0.329689,0.03081 z m 0.380071,0.311523 c 0,-1.087931 0.0281,-1.369327 0.136758,-1.369327 0.07522,0 0.557813,0.616197 1.072436,1.369327 0.514623,0.753131 0.997219,1.369328 1.072436,1.369328 0.109803,0 0.136757,-0.327724 0.136757,-1.662755 0,-1.043298 -0.03754,-1.662755 -0.100766,-1.662755 -0.0622,0 -0.100766,0.505347 -0.100766,1.320423 0,1.737122 -0.06475,1.736768 -1.232734,-0.0067 -0.491225,-0.733274 -0.947564,-1.313694 -1.032853,-1.313694 -0.130564,0 -0.1528,0.241974 -0.1528,1.662755 0,1.043298 0.03754,1.662755 0.100766,1.662755 0.06238,0 0.100766,-0.521648 0.100766,-1.369328 z m 9.740727,1.49974 c -0.03695,-0.03586 -0.06718,-0.871292 -0.06718,-1.856509 0,-2.091955 -0.125048,-1.91981 1.360343,-1.872699 l 0.906895,0.02876 v 0.293427 0.293428 l -0.780937,0.02857 -0.780938,0.02857 v 0.436026 0.436028 h 0.708525 c 0.563009,0 0.721518,0.03286 0.771783,0.160007 0.129159,0.326707 -0.107959,0.474325 -0.810656,0.504673 l -0.669652,0.02892 v 0.484577 0.484577 h 0.806129 0.806129 v 0.293427 0.293428 h -1.091633 c -0.600399,0 -1.121863,-0.02934 -1.15881,-0.06521 z m 2.048911,-0.228221 c 0,-0.05706 -0.335887,-0.09781 -0.806129,-0.09781 h -0.806129 v -0.733568 -0.733569 l 0.730554,-0.01727 0.730555,-0.01727 -0.705363,-0.05609 -0.705363,-0.05608 V 65.97226 65.287596 l 0.806129,-0.05742 0.806129,-0.05742 -0.957278,0.0085 -0.957279,0.0085 -0.02793,1.511935 c -0.01536,0.831565 -0.0055,1.568801 0.02203,1.638303 0.06146,0.155457 1.870073,0.183078 1.870073,0.02857 z m 0.906895,0.121391 c 0,-0.09462 0.248738,-0.532659 0.552751,-0.97342 l 0.55275,-0.801382 -0.514282,-0.784277 c -0.532922,-0.8127 -0.574671,-1.084605 -0.166125,-1.081943 0.315376,0.0021 0.395032,0.06788 0.80778,0.667544 l 0.359519,0.522328 0.420786,-0.601451 c 0.359771,-0.514239 0.459715,-0.59707 0.689243,-0.571233 0.417313,0.04698 0.37811,0.298606 -0.169169,1.085838 l -0.502591,0.722951 0.606862,0.889468 c 0.333774,0.489208 0.577043,0.936301 0.540598,0.993541 -0.03645,0.05724 -0.21697,0.104073 -0.401164,0.104073 -0.301238,0 -0.377791,-0.0639 -0.761635,-0.63576 -0.234705,-0.349667 -0.436657,-0.635759 -0.448782,-0.635759 -0.01213,0 -0.222188,0.285044 -0.466804,0.633431 -0.39248,0.558977 -0.483251,0.633706 -0.772247,0.63576 -0.246258,0.0018 -0.32749,-0.04035 -0.32749,-0.169709 z m 0.93745,-0.708738 c 0.266201,-0.376295 0.549244,-0.684172 0.628985,-0.684172 0.07974,0 0.356049,0.308099 0.614018,0.684664 0.257969,0.376566 0.531191,0.684664 0.607159,0.684664 0.08319,0 -0.08301,-0.320602 -0.417848,-0.806055 -0.305785,-0.443329 -0.555974,-0.885886 -0.555974,-0.983458 0,-0.09757 0.173482,-0.428069 0.385517,-0.734439 0.52149,-0.753505 0.547727,-0.801558 0.437652,-0.801558 -0.05259,0 -0.270655,0.263699 -0.484585,0.585999 -0.214061,0.322494 -0.463274,0.586384 -0.554214,0.586855 -0.09202,4.89e-4 -0.337608,-0.258814 -0.554214,-0.585144 -0.213931,-0.322299 -0.450862,-0.586384 -0.526513,-0.586854 -0.146466,-8.81e-4 -0.156717,-0.01973 0.572576,1.051219 l 0.350108,0.514126 -0.568909,0.82979 c -0.3129,0.456385 -0.56891,0.85223 -0.56891,0.879655 0,0.174329 0.213404,-0.03912 0.635152,-0.635292 z m 3.093195,-0.967134 c 0,-2.096989 -0.05884,-1.967009 0.889946,-1.966102 1.188388,0.0011 1.731302,0.350724 1.728489,1.112998 -8.07e-4,0.221374 -0.05813,0.512533 -0.12736,0.647021 -0.172492,0.335082 -0.732652,0.58652 -1.307073,0.586703 l -0.478639,1.52e-4 v 0.733568 0.733569 h -0.352681 -0.352682 z m 0.523891,0.820913 0.03032,-0.684664 0.677574,-0.0489 c 0.840642,-0.06067 1.105713,-0.268648 1.122241,-0.880512 0.0091,-0.335194 -0.04043,-0.453372 -0.270195,-0.645205 -0.245897,-0.205304 -0.381984,-0.234847 -1.081791,-0.234847 h -0.80051 v 1.597549 c 0,0.878652 0.03099,1.627626 0.06886,1.664385 0.143344,0.139137 0.224178,-0.105692 0.253502,-0.767801 z m 9.06e-4,-1.589399 c 0.02938,-0.756628 0.02997,-0.75808 0.322451,-0.79046 0.418611,-0.04634 0.934548,0.06425 1.114465,0.238886 0.158878,0.154216 0.208829,0.785829 0.07727,0.977073 -0.144998,0.210783 -0.521697,0.332522 -1.028924,0.332522 h -0.514694 z m 1.231426,0.310893 c 0.391718,-0.380223 0.06597,-0.824391 -0.604597,-0.824391 h -0.446263 v 0.489046 0.489046 h 0.44625 c 0.271327,0 0.50832,-0.06025 0.604597,-0.153701 z m 1.894375,0.425899 0.02737,-1.886049 0.906895,-0.02876 c 1.199465,-0.03804 1.381951,0.0096 1.341506,0.350054 -0.03095,0.260537 -0.04633,0.266105 -0.812483,0.29413 l -0.780938,0.02857 v 0.431557 0.431559 l 0.680172,0.02892 0.680171,0.02892 v 0.293427 0.293428 l -0.680171,0.02892 -0.680172,0.02892 v 0.480463 0.480462 l 0.780938,0.02857 c 0.757975,0.02773 0.780937,0.03576 0.780937,0.273089 v 0.244523 l -1.135806,0.02768 -1.135807,0.02768 0.02738,-1.886049 z m 1.992306,1.586175 c 0,-0.0571 -0.337359,-0.09781 -0.810544,-0.09781 h -0.810543 l 0.02961,-0.709116 0.02961,-0.709116 0.755746,-0.05334 0.755746,-0.05334 -0.755746,-0.04447 -0.755746,-0.04447 V 65.97226 65.287596 l 0.806129,-0.05542 0.806129,-0.05542 -0.932087,-0.01794 -0.932087,-0.01794 v 1.662755 1.662755 h 0.906896 c 0.537419,0 0.906895,-0.03985 0.906895,-0.09781 z m 1.377137,0.228221 c -0.03695,-0.03586 -0.06718,-0.867422 -0.06718,-1.847909 0,-2.013533 -0.04934,-1.901826 0.839562,-1.900895 0.66016,6.85e-4 1.234519,0.154298 1.484601,0.397042 0.280963,0.272717 0.268817,1.029567 -0.02133,1.329353 -0.157552,0.162785 -0.187655,0.257503 -0.110803,0.348636 0.158356,0.187784 0.629423,1.355475 0.629423,1.560225 0,0.13773 -0.07784,0.178755 -0.339179,0.178755 -0.323405,0 -0.349577,-0.02768 -0.562734,-0.595125 -0.268662,-0.715208 -0.508063,-0.969822 -0.911877,-0.969822 h -0.302298 v 0.782474 0.782473 h -0.285504 c -0.157028,0 -0.315735,-0.02934 -0.352682,-0.06521 z m 0.436653,-0.912885 v -0.782473 h 0.503831 c 0.620994,0 0.793571,0.148744 1.119669,0.965049 0.20703,0.518248 0.391939,0.766765 0.391773,0.52654 -1.01e-4,-0.164359 -0.429764,-1.160028 -0.562561,-1.303672 -0.18294,-0.197886 -0.183361,-0.472357 -8.06e-4,-0.540347 0.207001,-0.0771 0.394748,-0.583149 0.321479,-0.866506 -0.09729,-0.37628 -0.559992,-0.555193 -1.34884,-0.521563 l -0.67646,0.02884 -0.02793,1.511935 c -0.02852,1.543886 -0.0065,1.764671 0.175916,1.764671 0.06273,0 0.103928,-0.310156 0.103928,-0.782473 z m 0.02078,-1.687207 c 0.02951,-0.706813 0.03058,-0.709224 0.330083,-0.742254 0.490634,-0.05411 1.056169,0.157678 1.165347,0.436411 0.236589,0.604014 -0.163776,1.014959 -0.988829,1.014959 H 71.23283 Z m 1.065229,0.361238 c 0.277473,-0.188646 0.29345,-0.587229 0.02905,-0.724582 -0.107199,-0.05569 -0.356595,-0.10125 -0.554214,-0.10125 h -0.359305 v 0.489046 c 0,0.487379 0.0011,0.489046 0.33026,0.489046 0.181644,0 0.43104,-0.06852 0.554213,-0.15226 z m 2.183317,2.178511 c -0.0273,-0.06905 -0.03721,-0.916324 -0.02203,-1.882826 l 0.02761,-1.757276 h 0.302298 0.302298 l 0.02737,1.882826 0.02737,1.882826 h -0.307637 c -0.169201,0 -0.329973,-0.0565 -0.357272,-0.12555 z m 0.459024,-1.740974 c 0,-1.293195 -0.02847,-1.66172 -0.125957,-1.630266 -0.09182,0.02963 -0.133527,0.448204 -0.153887,1.544537 -0.02852,1.535954 -0.0064,1.756634 0.175916,1.756634 0.06734,0 0.103928,-0.588278 0.103928,-1.670905 z m 1.534508,-0.0163 0.02737,-1.882826 h 1.108428 1.108427 v 0.293427 0.293428 l -0.780937,0.02857 -0.780938,0.02857 v 0.436026 0.436028 h 0.711748 0.711747 l -0.03158,0.317879 -0.03158,0.31788 -0.680171,0.02892 -0.680172,0.02892 v 0.484577 0.484577 h 0.806129 0.806129 v 0.293427 0.293428 H 77.63813 76.477143 Z m 2.037534,1.594174 c -0.05272,-0.05117 -0.435878,-0.106185 -0.851474,-0.122261 l -0.755628,-0.02923 -0.03147,-0.482563 c -0.05785,-0.887152 -0.01877,-0.932967 0.814325,-0.954515 l 0.728635,-0.01885 -0.651116,-0.03526 c -0.358113,-0.01939 -0.709535,-0.08232 -0.780937,-0.139844 -0.172002,-0.13856 -0.171507,-1.098996 6.04e-4,-1.237671 0.07175,-0.0578 0.468521,-0.120468 0.881704,-0.139256 0.710316,-0.0323 0.697719,-0.03522 -0.231226,-0.05359 l -0.982437,-0.01943 v 1.662755 1.662755 h 0.977432 c 0.618167,0 0.942203,-0.03419 0.881586,-0.09303 z m 1.264733,-1.566595 c 0,-1.571132 0.02403,-1.876591 0.151375,-1.924023 0.368054,-0.137091 0.617345,0.07903 1.360117,1.179167 l 0.755746,1.119351 0.05038,-1.083247 c 0.05267,-1.132381 0.155181,-1.363817 0.540517,-1.220289 0.144626,0.05387 0.164846,0.289718 0.164846,1.922845 v 1.861443 l -0.32749,-0.0019 c -0.306707,-0.0018 -0.378648,-0.07734 -1.133619,-1.191052 l -0.806129,-1.189178 -0.05038,1.166599 -0.05038,1.166599 -0.327489,0.03065 -0.32749,0.03065 v -1.867641 z m 0.48901,0.201947 c -0.03029,-1.090936 -0.01313,-1.28012 0.115586,-1.274757 0.08313,0.0035 0.559252,0.619102 1.058045,1.368085 0.498792,0.748983 0.963576,1.362365 1.032853,1.36307 0.09588,9.78e-4 0.125957,-0.395789 0.125957,-1.661472 0,-1.043298 -0.03754,-1.662755 -0.100766,-1.662755 -0.0622,0 -0.100766,0.505347 -0.100766,1.320423 0,1.047507 -0.0283,1.320423 -0.136918,1.320423 -0.07531,0 -0.540089,-0.593297 -1.032853,-1.318438 -1.215649,-1.788924 -1.248616,-1.781659 -1.248616,0.275141 0,0.878652 0.03099,1.627626 0.06886,1.664385 0.186869,0.181385 0.251005,-0.227592 0.218622,-1.394105 z m 7.69605,-0.226303 0.02738,-1.886049 0.906896,-0.02876 c 1.199464,-0.03804 1.38195,0.0096 1.341505,0.350054 -0.03095,0.260537 -0.04633,0.266105 -0.812483,0.29413 l -0.780938,0.02857 v 0.431557 0.431559 l 0.680172,0.02892 0.680171,0.02892 v 0.293427 0.293428 l -0.680171,0.02892 -0.680172,0.02892 v 0.480463 0.480462 l 0.780938,0.02857 c 0.757975,0.02773 0.780937,0.03576 0.780937,0.273089 v 0.244523 l -1.135806,0.02768 -1.135807,0.02768 z m 1.992319,1.586175 c 0,-0.0571 -0.337359,-0.09781 -0.810544,-0.09781 H 88.36307 l 0.02961,-0.709116 0.02961,-0.709116 0.755746,-0.05334 0.755746,-0.05334 -0.755746,-0.04447 -0.755746,-0.04447 v -0.68466 -0.684664 l 0.806129,-0.05542 0.806129,-0.05542 -0.932087,-0.01794 -0.932086,-0.01794 v 1.662755 1.662755 h 0.906895 c 0.537419,0 0.906895,-0.03985 0.906895,-0.09781 z M 13.30113,66.803638 c 0,-0.193445 0.06718,-0.195618 6.045968,-0.195618 5.97879,0 6.045968,0.0022 6.045968,0.195618 0,0.193445 -0.06718,0.195618 -6.045968,0.195618 -5.978791,0 -6.045968,-0.0022 -6.045968,-0.195618 z m 81.116737,0 c 0,-0.193627 0.06718,-0.195618 6.600183,-0.195618 6.533,0 6.60018,0.002 6.60018,0.195618 0,0.193627 -0.0672,0.195618 -6.60018,0.195618 -6.533005,0 -6.600183,-0.002 -6.600183,-0.195618 z M 73.396575,60.48349 c -0.575652,-0.198167 -1.149652,-0.703287 -1.503148,-1.322775 l -0.299089,-0.52414 v -2.396323 c 0,-2.230274 0.0147,-2.427167 0.212179,-2.841435 0.50836,-1.066442 1.371081,-1.663389 2.506155,-1.734096 1.01891,-0.06347 1.66079,0.154285 2.283245,0.774583 0.774008,0.771325 0.922484,1.275397 0.972496,3.301598 0.04502,1.823946 -0.047,2.574209 -0.40687,3.317336 -0.271136,0.559889 -0.806196,1.063431 -1.435794,1.351216 -0.594103,0.27156 -1.657218,0.305352 -2.329174,0.07404 z m 2.408474,-0.404495 c 0.529118,-0.279531 0.807396,-0.581523 1.193959,-1.295706 0.223754,-0.41339 0.240215,-0.560463 0.270841,-2.419886 0.03653,-2.217789 -0.04725,-2.71014 -0.583407,-3.428564 -1.12338,-1.505273 -3.413326,-1.383504 -4.444716,0.236349 -0.391352,0.614636 -0.493773,1.250996 -0.495043,3.075764 -0.0013,1.843735 0.09792,2.413294 0.526894,3.024949 0.778902,1.110612 2.299244,1.458076 3.531472,0.807094 z m -1.830931,-0.477111 c -0.472434,-0.321195 -0.515607,-0.615506 -0.515607,-3.514875 0,-2.237049 0.02687,-2.75753 0.156005,-3.021672 0.17363,-0.35516 0.505675,-0.541832 0.963788,-0.541832 0.416588,0 0.659869,0.144518 0.869295,0.516397 0.156943,0.278681 0.177384,0.619312 0.177384,2.955827 0,1.452465 -0.034,2.758493 -0.07555,2.902283 -0.04155,0.143791 -0.192951,0.396872 -0.336447,0.562403 -0.204511,0.235915 -0.341239,0.300965 -0.632589,0.300965 -0.204427,0 -0.477255,-0.07177 -0.606284,-0.159496 z m 0.834528,-0.147213 c 0.494893,-0.218872 0.564422,-0.633545 0.564422,-3.366254 0,-1.959821 -0.03139,-2.568217 -0.146275,-2.835108 -0.174635,-0.405695 -0.528198,-0.568559 -0.935267,-0.430819 -0.547104,0.185126 -0.578181,0.328418 -0.613979,2.830907 -0.04055,2.834578 0.0053,3.264861 0.387202,3.635579 0.318735,0.309381 0.385421,0.324234 0.743897,0.165695 z M 28.475911,57.096082 c -0.434304,-1.896275 -0.867324,-3.623829 -0.962264,-3.839009 -0.132619,-0.300572 -0.252384,-0.413903 -0.516813,-0.489046 -0.325825,-0.09259 -0.344192,-0.121296 -0.344192,-0.53795 v -0.440141 l 1.738216,-0.02676 1.738216,-0.02676 V 52.22 c 0,0.457375 -0.01632,0.487063 -0.301143,0.547785 -0.165629,0.03531 -0.325197,0.101981 -0.354598,0.148155 -0.04442,0.06977 0.619624,3.126243 0.695123,3.199527 0.01335,0.01296 0.125644,-0.646887 0.249545,-1.46632 0.123901,-0.819434 0.273798,-1.808981 0.333104,-2.198995 l 0.10783,-0.709116 h 0.725569 0.725568 l 0.427215,2.029539 c 0.234968,1.116247 0.455013,2.117568 0.488987,2.225158 0.03624,0.114749 0.178322,-0.431123 0.343698,-1.320423 0.15506,-0.833823 0.257441,-1.593067 0.227514,-1.687208 -0.02993,-0.09414 -0.138338,-0.171166 -0.240913,-0.171166 -0.416814,0 -0.505281,-0.104582 -0.505281,-0.597319 v -0.478581 h 1.461109 1.461109 v 0.487182 c 0,0.450773 -0.02071,0.491957 -0.277107,0.551087 -0.652612,0.150501 -0.594059,-0.03616 -1.423117,4.536851 l -0.576295,3.178797 h -0.694412 -0.694411 l -0.471967,-2.151801 c -0.259581,-1.18349 -0.497019,-2.08578 -0.527638,-2.005087 -0.03062,0.08069 -0.173876,0.938967 -0.318348,1.907278 -0.385403,2.583135 -0.255508,2.298515 -1.048992,2.298515 h -0.675669 z m 2.08476,2.24961 c 0.08696,-0.551399 0.260759,-1.675377 0.386222,-2.497728 0.322448,-2.11351 0.393311,-2.046274 1.060407,1.006138 0.293919,1.344876 0.535694,2.456232 0.537279,2.469681 0.0016,0.01345 0.20607,0.02445 0.45441,0.02445 0.386263,0 0.458753,-0.03181 0.501515,-0.22007 0.02749,-0.121039 0.302731,-1.628522 0.611638,-3.349963 0.308908,-1.721441 0.612792,-3.297935 0.675297,-3.503322 0.122298,-0.401858 0.492849,-0.751375 0.796595,-0.751375 0.141648,0 0.187943,-0.07228 0.187943,-0.293428 V 51.93665 h -1.259576 -1.259577 v 0.282542 c 0,0.245342 0.04633,0.290978 0.351869,0.346616 0.577841,0.105222 0.575636,0.239979 -0.06137,3.75018 -0.07331,0.403978 -0.157753,0.608928 -0.250886,0.608928 -0.07721,0 -0.141887,-0.011 -0.143725,-0.02445 -0.0018,-0.01345 -0.241224,-1.124805 -0.531967,-2.46968 l -0.528625,-2.445229 -0.501655,-0.02874 -0.501656,-0.02874 -0.287749,1.93602 c -0.407859,2.744131 -0.471114,3.060825 -0.611357,3.060825 -0.149848,0 -0.996023,-3.54942 -0.946547,-3.970446 0.02637,-0.22445 0.102301,-0.30394 0.360893,-0.377835 0.268301,-0.07667 0.32749,-0.14296 0.32749,-0.366785 v -0.2732 H 28.41605 26.904558 v 0.281201 c 0,0.234219 0.05052,0.29101 0.302393,0.339905 0.231997,0.04504 0.349287,0.156041 0.503831,0.47682 0.110792,0.229963 0.543024,1.914595 0.960517,3.743626 0.417493,1.829031 0.778827,3.380528 0.802965,3.447772 0.02612,0.07276 0.222913,0.122261 0.486094,0.122261 h 0.442206 z m 7.025097,0.713548 c 0,-0.474709 0.0071,-0.485902 0.346317,-0.547677 0.268625,-0.04892 0.370351,-0.129982 0.453447,-0.36136 0.160103,-0.445791 0.141223,-5.724225 -0.02159,-6.036539 -0.07088,-0.135962 -0.268093,-0.280843 -0.451962,-0.332028 -0.310134,-0.08634 -0.326211,-0.114216 -0.326211,-0.565708 v -0.474896 h 1.81379 1.813791 v 0.481273 c 0,0.452701 -0.01754,0.485013 -0.295336,0.544238 -0.561493,0.119705 -0.561177,0.117803 -0.561177,3.3759 0,3.258096 -3.02e-4,3.256194 0.561177,3.375899 0.277801,0.05923 0.295336,0.09154 0.295336,0.544238 v 0.481274 h -1.813791 -1.81379 z m 3.426048,-0.0044 c 0,-0.230395 -0.04428,-0.293428 -0.206112,-0.293428 -0.113362,0 -0.317413,-0.108035 -0.453447,-0.240077 l -0.247336,-0.240076 0.0015,-3.060982 c 0.0016,-3.363729 0.02063,-3.483234 0.579373,-3.64361 0.266711,-0.07656 0.326037,-0.143296 0.326037,-0.366785 v -0.2732 h -1.561875 -1.561875 v 0.293427 c 0,0.199455 0.04987,0.293428 0.155729,0.293428 0.08565,0 0.26703,0.108035 0.403065,0.240077 l 0.247339,0.240076 v 3.138785 3.138784 l -0.247335,0.240076 c -0.136035,0.132042 -0.317414,0.240077 -0.403065,0.240077 -0.105855,0 -0.155729,0.09397 -0.155729,0.293428 v 0.293427 h 1.561875 1.561875 z m 1.813791,-0.0024 c 0,-0.469132 0.01391,-0.494193 0.305877,-0.550871 0.168232,-0.03266 0.349611,-0.138701 0.403065,-0.235648 0.05624,-0.101997 0.09719,-1.41804 0.09719,-3.123401 0,-1.705362 -0.04095,-3.021405 -0.09719,-3.123402 -0.05345,-0.09695 -0.234833,-0.202988 -0.403065,-0.235648 -0.292184,-0.05672 -0.305877,-0.08148 -0.305877,-0.553127 v -0.493748 l 1.788599,0.02671 1.788598,0.02671 v 0.440141 c 0,0.415231 -0.01961,0.446293 -0.34646,0.548836 -0.190553,0.05978 -0.380081,0.191825 -0.421173,0.293427 -0.04109,0.101603 -0.0779,1.400189 -0.0818,2.885746 -0.0067,2.560349 0.0034,2.71399 0.19485,2.950194 0.248762,0.306971 0.827317,0.418626 1.397263,0.26966 0.491555,-0.128478 0.61714,-0.321282 0.619202,-0.950623 0.0021,-0.654572 0.07692,-0.733166 0.663186,-0.697066 l 0.494082,0.03042 0.02782,1.491589 0.02782,1.49159 h -3.075991 -3.075992 z m 5.844435,-0.975646 v -1.271519 h -0.302298 c -0.291591,0 -0.302298,0.01576 -0.302298,0.444998 0,0.896224 -0.40264,1.217757 -1.52494,1.217757 -0.507264,0 -0.633139,-0.03917 -0.917049,-0.285404 l -0.32908,-0.285404 v -2.878586 c 0,-3.162847 0.03264,-3.359566 0.574792,-3.464816 0.230057,-0.04466 0.28172,-0.106258 0.28172,-0.335892 V 51.93665 h -1.561875 -1.561875 v 0.281201 c 0,0.235108 0.05028,0.290963 0.30676,0.340753 0.554381,0.107623 0.600135,0.380852 0.600135,3.583839 0,3.202987 -0.04575,3.476215 -0.600135,3.583838 -0.256477,0.04979 -0.30676,0.105645 -0.30676,0.340753 v 0.281201 h 2.821452 2.821451 z m 2.116089,0.982369 c 0,-0.476619 0.01326,-0.500788 0.305878,-0.557594 0.168232,-0.03266 0.349611,-0.138701 0.403064,-0.235648 0.05624,-0.101997 0.09719,-1.41804 0.09719,-3.123401 0,-1.705362 -0.04095,-3.021405 -0.09719,-3.123402 -0.05345,-0.09695 -0.234832,-0.202988 -0.403064,-0.235648 -0.29257,-0.0568 -0.305878,-0.08103 -0.305878,-0.55707 v -0.49769 l 2.493962,0.03065 2.493962,0.03065 0.462871,0.264129 c 1.0947,0.62467 1.602153,1.879455 1.613843,3.990568 0.0065,1.16588 -0.116594,1.759431 -0.532871,2.570383 -0.379006,0.738344 -0.853674,1.237888 -1.513256,1.592562 l -0.534418,0.287371 -2.242046,0.03118 -2.242047,0.03117 z m 4.310208,0.139928 c 1.83731,-0.529611 2.865846,-2.759084 2.444599,-5.298957 -0.182407,-1.099798 -0.4636,-1.752423 -0.964583,-2.238703 C 55.920676,52.024916 55.489363,51.93665 53.03508,51.93665 h -2.047417 v 0.281201 c 0,0.235108 0.05028,0.290963 0.306761,0.340753 0.554381,0.107623 0.600135,0.380852 0.600135,3.583839 0,3.202987 -0.04575,3.476215 -0.600135,3.583838 -0.256477,0.04979 -0.306761,0.105645 -0.306761,0.340753 v 0.281201 h 1.795502 c 1.316022,0 1.933743,-0.03985 2.313174,-0.149221 z m -1.711935,-0.853322 c -0.194369,-0.330301 -0.186336,-6.236607 0.0088,-6.464823 C 53.49918,52.757 53.706785,52.7192 54.281533,52.7192 c 0.412517,0 0.842006,0.04778 0.954418,0.106174 0.856411,0.444887 1.03028,4.126341 0.27559,5.835294 -0.309945,0.701851 -0.615631,0.905171 -1.360906,0.905171 -0.554754,0 -0.653392,-0.02833 -0.766224,-0.22007 z m 1.326291,-0.119594 c 0.673778,-0.338199 1.056296,-1.807071 0.98133,-3.768319 -0.08041,-2.103684 -0.314397,-2.543038 -1.354346,-2.543038 -0.323963,0 -0.643437,0.05282 -0.709943,0.117371 -0.157673,0.153046 -0.1731,5.865015 -0.01661,6.148844 0.128248,0.232601 0.6809,0.25529 1.099567,0.04514 z m 7.865074,0.836482 c 0,-0.452701 0.01753,-0.485013 0.295335,-0.544238 0.561475,-0.119701 0.561177,-0.117907 0.561177,-3.376005 0,-3.253711 3.02e-4,-3.251993 -0.556474,-3.360077 -0.285335,-0.05539 -0.300038,-0.08245 -0.300038,-0.552103 v -0.493856 l 1.687622,0.02682 1.687622,0.02682 0.755957,2.001989 0.755956,2.001988 0.02812,-1.293983 c 0.01582,-0.727687 -0.01569,-1.373453 -0.072,-1.47557 -0.05507,-0.09987 -0.237765,-0.208307 -0.405997,-0.240967 -0.291963,-0.05668 -0.305878,-0.08174 -0.305878,-0.550871 v -0.49149 h 1.461109 1.461109 v 0.481273 c 0,0.455178 -0.01638,0.484768 -0.302173,0.545696 -0.60531,0.129046 -0.604722,0.125032 -0.604722,4.129774 v 3.646079 H 67.78501 66.847526 l -1.10303,-3.007631 -1.10303,-3.007631 -0.02709,2.165043 c -0.01618,1.293499 0.01401,2.269958 0.075,2.425669 0.06038,0.154153 0.225818,0.302493 0.404962,0.36311 0.281109,0.09512 0.302876,0.136943 0.302876,0.581963 v 0.479477 h -1.410726 -1.410726 z m 2.519153,-0.0078 c 0,-0.161385 -0.0474,-0.293428 -0.105346,-0.293428 -0.05794,0 -0.216647,-0.108035 -0.352681,-0.240077 l -0.247336,-0.240076 v -2.743103 c 0,-2.230379 0.02529,-2.743101 0.135309,-2.743101 0.08671,0 0.56527,1.176717 1.33255,3.276606 l 1.197242,3.276606 h 0.677088 0.677087 l 0.03088,-3.59899 c 0.02781,-3.241695 0.04851,-3.625093 0.208491,-3.861908 0.09769,-0.144605 0.290404,-0.290394 0.428256,-0.323978 0.194721,-0.04744 0.250641,-0.124161 0.250641,-0.343885 V 51.93665 h -1.209194 -1.209193 v 0.281201 c 0,0.235108 0.05028,0.290963 0.30676,0.340753 0.509195,0.09885 0.600135,0.470994 0.600135,2.455892 0,2.540741 0.04405,2.595091 -1.741586,-2.148659 l -0.331354,-0.880283 -1.482684,-0.02707 -1.482683,-0.02707 v 0.275816 c 0,0.226436 0.05837,0.292569 0.326037,0.369399 0.557527,0.160029 0.577888,0.285663 0.577888,3.565808 0,3.280144 -0.02036,3.405778 -0.577888,3.565808 -0.266711,0.07655 -0.326037,0.143295 -0.326037,0.366784 v 0.2732 h 1.158811 1.15881 z M 79.443834,60.4065 c -0.02988,-0.07557 -0.03979,-0.284639 -0.02203,-0.464593 0.02697,-0.273245 0.08769,-0.344573 0.368302,-0.432611 0.184806,-0.05798 0.376827,-0.168016 0.426713,-0.244523 0.132784,-0.203641 0.119302,-5.895189 -0.01464,-6.180533 -0.0605,-0.128892 -0.249794,-0.271431 -0.428256,-0.322482 -0.297914,-0.08522 -0.319828,-0.121648 -0.319828,-0.531632 v -0.440141 l 2.310973,-0.02633 c 2.632346,-0.03 2.98294,0.03129 3.621207,0.633047 0.773413,0.729171 1.171833,1.993732 1.171833,3.719335 0,1.57805 -0.435946,2.71937 -1.378253,3.608314 -0.76121,0.7181 -1.208925,0.819557 -3.616614,0.819557 -1.680482,0 -2.075205,-0.02559 -2.119408,-0.137403 z m 4.359953,-0.204295 c 1.003263,-0.289194 1.802118,-1.12017 2.264878,-2.35595 0.17542,-0.468447 0.217588,-0.802995 0.220915,-1.752668 0.006,-1.72114 -0.327996,-2.781807 -1.107445,-3.516584 -0.584044,-0.55057 -1.06455,-0.640304 -3.428707,-0.640304 H 79.706011 V 52.2179 c 0,0.231058 0.05133,0.291165 0.287832,0.337079 0.527517,0.102407 0.568681,0.369168 0.568681,3.685322 0,3.256004 -0.02042,3.383269 -0.559694,3.487959 -0.245988,0.04775 -0.296819,0.105778 -0.296819,0.338823 v 0.281201 h 1.795502 c 1.299146,0 1.935595,-0.04038 2.302274,-0.146079 z m -1.692242,-0.797978 c -0.10917,-0.127555 -0.14448,-0.799339 -0.167658,-3.189787 -0.03574,-3.685816 -0.0954,-3.495268 1.09431,-3.495268 0.716318,0 0.835612,0.02643 1.047431,0.23203 0.36625,0.355502 0.473538,0.85835 0.530396,2.485898 0.0561,1.605964 -0.03863,2.362197 -0.398043,3.17733 -0.31027,0.703684 -0.6705,0.951381 -1.383612,0.951381 -0.420503,0 -0.623335,-0.04534 -0.722824,-0.161584 z m 1.362419,-0.238898 c 0.646315,-0.493473 0.919163,-1.513439 0.91329,-3.414074 -0.0049,-1.587176 -0.182705,-2.419362 -0.573701,-2.68519 -0.312118,-0.2122 -1.316051,-0.205215 -1.500476,0.01044 -0.110371,0.129062 -0.138295,0.748125 -0.138295,3.065913 0,2.317753 0.02793,2.936869 0.138295,3.065987 0.198319,0.232006 0.831369,0.208516 1.160887,-0.04308 z m 4.797169,0.8973 c 0,-0.452701 0.01753,-0.485013 0.295335,-0.544238 0.55327,-0.117953 0.558631,-0.146223 0.591967,-3.121922 0.03537,-3.157549 -0.01227,-3.464032 -0.559812,-3.600981 -0.314243,-0.0786 -0.32749,-0.101577 -0.32749,-0.568158 v -0.486249 h 2.871835 2.871834 v 1.61385 1.613851 h -0.554213 -0.554214 l -6.05e-4,-0.415689 c -0.0013,-0.993564 -0.485139,-1.736112 -1.131195,-1.736112 -0.651954,0 -0.728284,0.140476 -0.766236,1.410159 l -0.03386,1.132878 h 0.719063 0.719063 l -0.03022,0.562403 -0.03022,0.562402 -0.680171,0.02892 -0.680172,0.02892 v 1.222591 c 0,1.167648 0.01112,1.233381 0.247336,1.462668 0.280521,0.27229 0.63962,0.305688 1.053435,0.09798 0.35717,-0.17928 0.534077,-0.591055 0.606909,-1.412663 l 0.05726,-0.645941 h 0.503831 0.50383 l 0.02763,1.638303 0.02763,1.638303 H 91.145404 88.271133 Z M 93.81327,58.930003 V 57.51177 h -0.352681 -0.352682 v 0.596526 c 0,1.069193 -0.425025,1.555275 -1.359918,1.555275 -0.35726,0 -0.519532,-0.05484 -0.710367,-0.240077 -0.239932,-0.232889 -0.247336,-0.282669 -0.247336,-1.662755 v -1.422678 h 0.65498 0.65498 v -0.391237 -0.391236 h -0.65498 -0.65498 l 0.0032,-1.247067 c 0.0036,-1.383834 0.0585,-1.536077 0.609715,-1.689524 0.400962,-0.11162 0.994865,0.02075 1.23141,0.274459 0.278137,0.29832 0.473292,0.872978 0.473292,1.393669 v 0.498384 l 0.32749,-0.03065 0.32749,-0.03065 0.02796,-1.39378 0.02796,-1.39378 h -2.673068 -2.67307 v 0.2732 c 0,0.223489 0.05933,0.29023 0.326037,0.366785 0.558738,0.160376 0.577741,0.279881 0.579373,3.64361 l 0.0015,3.060982 -0.247335,0.240076 c -0.136035,0.132042 -0.340086,0.240077 -0.453448,0.240077 -0.161832,0 -0.206108,0.06303 -0.206108,0.293428 v 0.293427 h 2.670303 2.670302 z M 13.30113,47.828666 c 0,-0.194805 0.06718,-0.195618 16.172964,-0.195618 16.105787,0 16.172964,7.82e-4 16.172964,0.195618 0,0.194806 -0.06718,0.195618 -16.172964,0.195618 -16.105787,0 -16.172964,-7.82e-4 -16.172964,-0.195618 z m 61.971172,0 c 0,-0.194805 0.06718,-0.195618 16.172964,-0.195618 16.105784,0 16.172964,7.82e-4 16.172964,0.195618 0,0.194806 -0.0672,0.195618 -16.172964,0.195618 -16.105787,0 -16.172964,-7.82e-4 -16.172964,-0.195618 z M 59.253155,47.332284 c -1.57596,-1.392969 -3.556441,-2.377687 -5.897487,-2.932301 -0.949751,-0.225003 -1.113038,-0.292422 -1.140628,-0.470948 -0.02643,-0.170981 0.01876,-0.208093 0.251916,-0.206907 1.037544,0.0053 3.747628,0.940126 5.146081,1.775147 0.289764,0.173018 0.32749,0.176985 0.32749,0.03442 0,-0.29364 -0.195921,-0.522759 -0.502993,-0.588223 -0.277556,-0.05917 -0.303266,-0.09905 -0.304679,-0.472545 -0.0021,-0.562373 -0.110339,-0.682408 -0.671609,-0.744996 -0.478109,-0.05331 -0.486528,-0.06024 -0.541561,-0.445394 -0.11655,-0.815681 -0.505255,-1.111732 -1.21582,-0.926011 -0.474076,0.123909 -0.548177,0.08944 -0.626671,-0.291511 -0.03314,-0.160823 -0.156283,-0.385622 -0.273657,-0.499552 -0.183179,-0.177803 -0.30852,-0.202483 -0.884853,-0.174223 -0.62407,0.0306 -0.673636,0.01799 -0.70251,-0.178746 -0.02213,-0.150803 0.03582,-0.230933 0.201532,-0.27866 0.12793,-0.03685 0.878245,-0.688764 1.667367,-1.448708 1.362055,-1.311692 1.443634,-1.373111 1.609704,-1.211915 0.16607,0.161197 0.111306,0.231712 -1.080575,1.391403 -0.944889,0.919368 -1.203153,1.2216 -1.043887,1.2216 0.269517,0 0.705294,0.330867 0.888366,0.674501 0.121034,0.227185 0.192694,0.260216 0.491168,0.226393 0.534767,-0.0606 1.065834,0.230257 1.288223,0.705537 0.102595,0.21926 0.187533,0.475681 0.18875,0.569822 0.0016,0.126123 0.08526,0.171166 0.317804,0.171166 0.231293,0 0.406173,0.09323 0.654701,0.349009 0.391523,0.402952 0.742732,0.396678 0.742732,-0.01327 0,-0.288046 0.3278,-0.629168 0.604597,-0.629168 0.152316,0 0.201895,-0.06569 0.203017,-0.268976 0.0022,-0.391117 0.205044,-0.720562 0.60458,-0.981725 0.304404,-0.198978 0.366802,-0.310172 0.468178,-0.834312 l 0.116963,-0.604739 -0.857452,-0.843 c -0.829104,-0.815129 -0.995599,-1.127428 -0.659052,-1.236199 0.07048,-0.02278 0.486741,0.297305 0.92502,0.711298 l 0.796869,0.752713 0.262292,-0.502417 c 0.144259,-0.276329 0.582863,-0.829994 0.974675,-1.230365 l 0.712384,-0.727948 -1.597397,-0.02699 c -1.520951,-0.0257 -1.597396,-0.03635 -1.597396,-0.222605 0,-0.187772 0.07633,-0.196687 1.902987,-0.222277 l 1.902985,-0.02666 0.503374,-0.38903 c 0.685965,-0.530147 0.916903,-0.513473 1.706199,0.12319 1.165254,0.939919 2.142998,1.909393 2.491705,2.470632 0.443898,0.714449 0.807952,1.939848 0.839325,2.825151 l 0.02468,0.696304 -0.32749,0.03065 -0.32749,0.03065 v 0.580658 0.580657 l 0.32749,0.0015 c 0.41961,0.0019 0.60896,0.120717 0.561927,0.352555 -0.03409,0.168048 -0.123967,0.181007 -1.042767,0.150362 -2.044205,-0.06818 -4.398995,0.277707 -6.328308,0.92955 -0.859653,0.290446 -2.587294,1.051294 -2.587294,1.139439 0,0.0155 0.317413,0.284824 0.705363,0.598499 0.509582,0.41202 0.705363,0.634652 0.705363,0.802104 0,0.363532 -0.289389,0.278851 -0.904227,-0.264595 z m 0.29963,-0.127401 c 0,-0.02031 -0.07935,-0.09734 -0.176341,-0.171166 -0.159821,-0.121662 -0.163385,-0.118203 -0.03804,0.03693 0.131638,0.162926 0.214386,0.214738 0.214386,0.134238 z m -1.180457,-1.218784 c -0.219045,-0.04991 -0.275496,0.05797 -0.123416,0.235835 0.124033,0.145066 0.141236,0.143186 0.202132,-0.02209 0.04314,-0.117086 0.01544,-0.192295 -0.07872,-0.213747 z m 2.187765,-2.387678 3.53e-4,-1.149257 h -0.297291 c -0.178054,0 -0.337198,-0.06865 -0.396789,-0.171166 -0.169951,-0.292368 -0.361341,0.01923 -0.362727,0.590544 l -0.0012,0.509809 -0.403065,0.0489 c -0.392945,0.04768 -0.403842,0.05934 -0.43405,0.464594 -0.01704,0.228628 -0.08506,0.422392 -0.151149,0.430586 -0.06609,0.0082 -0.165508,0.02512 -0.22093,0.03762 -0.05542,0.0125 -0.188603,0.0278 -0.295959,0.03401 -0.17653,0.0102 -0.168943,0.03788 0.07935,0.289437 0.151,0.152985 0.319172,0.435034 0.373715,0.626775 l 0.09917,0.348618 1.005127,-0.455608 1.005128,-0.455608 4.03e-4,-1.149257 z m 0.51796,1.218921 c -0.0727,-0.02352 -0.180086,0.0037 -0.238641,0.06057 -0.07478,0.07258 -0.03543,0.08531 0.132176,0.04277 0.136256,-0.03459 0.181933,-0.07892 0.106465,-0.10334 z M 57.560849,44.52472 c 0.02579,-0.09573 -0.01427,-0.229508 -0.08901,-0.297283 -0.112068,-0.101615 -0.135906,-0.07109 -0.135906,0.174053 0,0.322768 0.149147,0.404483 0.224919,0.12323 z m 4.208791,-0.159877 0.352681,-0.123431 0.05038,-2.094286 0.05038,-2.094286 h 1.96494 1.96494 l 0.02746,1.785017 0.02747,1.785016 h 0.501558 0.501557 v -1.135139 c 0,-2.060044 -0.339045,-2.818815 -1.901902,-4.256388 -0.577641,-0.531337 -1.082129,-0.966066 -1.121082,-0.966066 -0.03895,0 -0.543441,0.434729 -1.121082,0.966066 -1.654337,1.521719 -1.901902,2.130709 -1.901902,4.678509 0,1.735638 -0.02505,1.675351 0.604597,1.454988 z m 1.88797,-4.972215 c -0.226689,-0.167089 -0.375427,-0.590866 -0.305279,-0.869785 0.197423,-0.784973 1.275908,-0.880863 1.594073,-0.141731 0.168316,0.391013 0.04666,0.879499 -0.258521,1.038033 -0.258133,0.134096 -0.832426,0.119314 -1.030273,-0.02652 z m 0.782332,-0.660211 c 0,-0.179258 -0.06064,-0.252881 -0.227174,-0.275836 -0.136264,-0.01878 -0.251471,0.03014 -0.287888,0.122262 -0.10033,0.253782 0.0403,0.463536 0.287888,0.429409 0.166539,-0.02295 0.227174,-0.09658 0.227174,-0.275835 z m -1.988212,3.563105 -0.02747,-2.047064 -0.0502,2.122641 c -0.02761,1.167452 -0.01525,2.088631 0.02747,2.047063 0.04272,-0.04157 0.06531,-0.996755 0.0502,-2.12264 z m 0.967668,1.666446 0.466331,-0.06788 V 42.24244 40.59079 h -0.604597 -0.604597 v 1.771029 c 0,1.460724 0.02423,1.762005 0.138266,1.719528 0.07605,-0.02833 0.348115,-0.08205 0.604597,-0.119379 z m 0.995353,0.08517 c -0.06928,-0.02713 -0.182639,-0.02713 -0.251916,0 -0.06928,0.02713 -0.0126,0.04933 0.125958,0.04933 0.138553,0 0.195234,-0.0222 0.125958,-0.04933 z m 0.854413,-0.09213 c -0.03348,-0.0325 -0.120395,-0.03598 -0.193136,-0.0077 -0.08038,0.03122 -0.05651,0.0544 0.06088,0.05909 0.106224,0.0042 0.165739,-0.01887 0.132256,-0.05137 z m 0.707072,-2.747839 c -0.01815,-0.527296 -0.03309,-0.122452 -0.03318,0.899654 -9.7e-5,1.022105 0.01476,1.453529 0.03301,0.958719 0.01825,-0.494809 0.01833,-1.331077 2.02e-4,-1.858373 z m 1.411116,2.639067 c -0.152409,-0.02241 -0.401805,-0.02241 -0.554214,0 -0.152409,0.02241 -0.02771,0.04075 0.277107,0.04075 0.304817,0 0.429515,-0.01834 0.277107,-0.04075 z m -1.710466,-1.714961 0.02775,-1.540494 H 65.09748 64.490324 v 1.590565 1.590563 l 0.579406,-0.05007 0.579405,-0.05007 z m -9.273043,1.326358 c -0.09699,-0.0246 -0.179921,-0.140535 -0.184296,-0.257629 -0.0044,-0.117095 -0.03132,-0.156429 -0.05989,-0.08741 -0.08273,0.199913 0.04559,0.41347 0.241022,0.401116 0.168229,-0.01063 0.168428,-0.01415 0.0032,-0.05608 z m -1.815889,-1.360999 c -0.03348,-0.0325 -0.120396,-0.03598 -0.193136,-0.0077 -0.08038,0.03122 -0.05651,0.0544 0.06088,0.05909 0.106224,0.0042 0.165739,-0.01887 0.132256,-0.05137 z m 6.16461,-1.212425 c 0.18995,-1.027586 0.691827,-1.905699 1.540506,-2.695365 0.404881,-0.376725 0.933614,-0.845847 1.174962,-1.042492 0.241349,-0.196644 0.421772,-0.407164 0.400941,-0.467824 -0.02083,-0.06066 -0.590792,0.401101 -1.266578,1.026134 -1.323952,1.224517 -1.677544,1.745493 -1.989387,2.931121 -0.162613,0.618254 -0.21306,1.60523 -0.05769,1.128708 0.04385,-0.134488 0.13261,-0.530615 0.197248,-0.880282 z m 7.01443,-0.219282 c -0.266193,-1.009215 -0.608314,-1.609315 -1.334849,-2.341407 -0.88484,-0.891608 -1.831095,-1.687374 -1.912507,-1.60835 -0.03528,0.03424 0.136411,0.225711 0.381529,0.425488 0.245119,0.199776 0.776936,0.671461 1.181816,1.048186 0.850426,0.791291 1.352872,1.671864 1.537949,2.695365 0.195571,1.081539 0.232033,1.183051 0.272553,0.758809 0.01923,-0.201298 -0.03769,-0.641439 -0.126491,-0.978091 z m -0.285616,0.689988 c -0.03217,-0.07802 -0.05605,-0.05485 -0.06088,0.05909 -0.0044,0.103106 0.01944,0.160875 0.05292,0.128374 0.03348,-0.0325 0.03706,-0.116862 0.008,-0.187468 z M 53.103752,40.958987 c 0,-0.06647 0.555474,-0.671659 1.234385,-1.344873 l 1.234386,-1.224022 -1.241056,1.173705 c -1.229714,1.162981 -1.539919,1.516039 -1.332026,1.516039 0.05737,0 0.104311,-0.05438 0.104311,-0.120849 z m 7.321897,-0.881695 c -0.02795,-0.06724 -0.05083,-0.01223 -0.05083,0.122262 0,0.134487 0.02287,0.189505 0.05083,0.122261 0.02795,-0.06724 0.02795,-0.177279 0,-0.244523 z m 5.27387,-2.848941 c 0,-0.02031 -0.07935,-0.09734 -0.176341,-0.171166 -0.159821,-0.121662 -0.163385,-0.118202 -0.03804,0.03693 0.131638,0.162925 0.214386,0.214738 0.214386,0.134237 z m -2.670303,-0.278315 c 0.05751,-0.04166 0.02506,-0.07364 -0.07557,-0.07449 -0.09802,-8.81e-4 -0.176341,0.0709 -0.176341,0.161518 0,0.08966 0.03401,0.123181 0.07558,0.07449 0.04157,-0.04869 0.120919,-0.121369 0.17634,-0.161517 z m -6.149344,5.77232 c -0.02881,-0.07288 -0.04001,-0.967415 -0.02489,-1.987864 0.0264,-1.781259 0.03555,-1.855362 0.229029,-1.855362 0.19481,0 0.201532,0.06521 0.201532,1.954843 0,1.785277 -0.01532,1.957708 -0.176645,1.987864 -0.09716,0.01816 -0.200219,-0.02661 -0.22903,-0.09948 z m 0.228905,-2.737926 c -0.01833,-0.500325 -0.03341,-0.117427 -0.03351,0.850883 -1.01e-4,0.968311 0.01489,1.377667 0.03332,0.909682 0.01843,-0.467986 0.01852,-1.26024 2.02e-4,-1.760565 z M 56.210422,38.44184 C 55.58541,38.112121 55.37099,37.71973 55.37099,36.905668 c 0,-0.559018 0.04292,-0.758172 0.210798,-0.978091 0.708754,-0.928477 1.952761,-1.035559 2.773658,-0.238751 0.81539,0.791463 0.704791,2.00169 -0.24589,2.690647 -0.398181,0.288561 -1.407531,0.321707 -1.899134,0.06237 z m 1.802218,-0.725345 c 0.757562,-0.802385 0.195714,-2.016161 -0.933266,-2.016161 -0.9571,0 -1.540868,0.940146 -1.098895,1.769746 0.40556,0.761252 1.428926,0.885342 2.032161,0.246415 z m 0.330951,-1.759663 c 0,-0.02031 -0.07935,-0.09734 -0.176341,-0.171166 -0.159821,-0.121662 -0.163385,-0.118202 -0.03805,0.03693 0.131638,0.162926 0.214386,0.214738 0.214386,0.134237 z m -6.07684,1.148069 c -0.03844,-0.03731 -0.06989,-0.148535 -0.06989,-0.24716 0,-0.165677 0.111666,-0.179316 1.468117,-0.179316 1.464856,0 1.468046,4.89e-4 1.435918,0.220071 -0.03136,0.214299 -0.06802,0.22078 -1.398223,0.247159 -0.751313,0.0149 -1.397476,-0.0034 -1.435918,-0.04075 z m 1.506758,-3.236708 c -0.867159,-0.953883 -1.576652,-1.812158 -1.576652,-1.907279 0,-0.116554 0.07393,-0.170295 0.226724,-0.164818 0.289056,0.01036 3.300091,3.29868 3.300091,3.603991 0,0.483777 -0.41186,0.160251 -1.950163,-1.531894 z m 4.670848,1.549137 c 0,-0.264052 3.091628,-3.629362 3.334207,-3.629362 0.426351,0 0.137598,0.439841 -1.376739,2.097098 -1.524339,1.668203 -1.957468,2.007247 -1.957468,1.532264 z M 56.90276,34.856035 C 56.8639,34.818315 56.8321,34.112566 56.8321,33.287708 v -1.49974 h 0.254474 0.254475 l -0.02775,1.539255 c -0.0234,1.297918 -0.05222,1.543813 -0.183813,1.568327 -0.08583,0.01599 -0.18786,-0.0018 -0.226724,-0.03952 z m 0.205595,-2.163332 c -0.01939,-0.363117 -0.03525,-0.06602 -0.03525,0.660211 0,0.726233 0.01586,1.023329 0.03525,0.660212 0.01939,-0.363116 0.01939,-0.957307 0,-1.320423 z"
       id="path4636" /></g></svg>
